<?xml version="1.0" encoding="utf-8"?>
<!-- Generator: Adobe Illustrator 16.0.0, SVG Export Plug-In . SVG Version: 6.00 Build 0)  -->
<!DOCTYPE svg PUBLIC "-//W3C//DTD SVG 1.1//EN" "http://www.w3.org/Graphics/SVG/1.1/DTD/svg11.dtd">
<svg version="1.1" id="Layer_1" xmlns="http://www.w3.org/2000/svg" xmlns:xlink="http://www.w3.org/1999/xlink" x="0px" y="0px"
	 width="242px" height="307px" viewBox="0 0 242 307" enable-background="new 0 0 242 307" xml:space="preserve">
<g>
	<path fill="#9C9B9B" d="M148.667,31.056c-3.846-0.86-7.645-1.439-11.387-1.761c0.001,0.695-0.199,1.397-0.614,1.995
		c-0.767,1.102-1.514,2.213-2.286,3.312c14.57,0.473,28.716,5.492,42.112,15.243c24.207,17.619,34.783,42.435,31.025,72.136
		c-2.341,18.477-13.558,33.315-24.538,47.783c-5.262,6.934-11.019,13.517-16.84,19.995c-9.205,10.235-14.57,22.016-16.144,35.734
		c-1.304,11.374-2.883,12.311-14.162,10.674c-7.505-1.09-15.011-2.182-22.517-3.273c-8.416-1.223-16.805-2.702-25.255-3.584
		c-6.208-0.646-9.068-4.157-7.772-9.645c4.571-19.362-0.963-36.667-9.458-53.675c-6.266-12.542-10.338-25.885-13.936-39.455
		c-0.433-1.631-0.782-3.25-1.092-4.862c-1.693,1.412-3.386,2.823-5.078,4.235c4.884,19.473,12.535,37.666,20.542,55.848
		c3.102,7.046,6.489,14.792,4.44,21.892c-3.866,13.397,2.635,25.616,2.115,38.473c-0.254,6.262-1.096,12.765-2.498,18.462
		c-2.804,11.4-1.848,15.216,9.729,17.129c3.058,0.504,4.634,0.677,3.686,4.845c-1.685,7.4,1.82,11.814,9.284,13.266
		c2.933,0.567,5.913,0.893,8.872,1.32c12.274,1.764,15.956-1.147,16.901-13.523c1.592,0.157,3.185,0.278,4.766,0.478
		c11.007,1.399,14.032-2.419,13.771-13.471c-0.133-5.584,1.514-11.528,2.415-17.233c0.97-6.148,2.386-13.229,8.687-17.473
		c1.352-0.908,1.936-3.685,2.02-5.64c0.736-16.781,8.264-30.245,19.695-42.033c4.464-4.603,8.601-9.58,12.439-14.718
		c11.298-15.113,22.605-30.501,25.601-49.656C219.914,80.829,192.341,40.813,148.667,31.056z M117.362,287.749
		c-0.532,3.524-2.748,4.401-5.928,3.892c-2.252-0.362-4.516-0.664-6.772-0.994c-2.032-0.297-4.066-0.588-6.097-0.887
		c-2.916-0.434-4.544-1.938-4.202-5.073c0.349-3.202,1.923-5.157,5.351-4.745c4.529,0.541,9.041,1.25,13.549,1.95
		C116.614,282.411,117.856,284.472,117.362,287.749z M136.758,275.042c-0.524,4.181-3.692,3.918-6.828,3.451
		c-7.482-1.112-14.97-2.184-22.456-3.27c-7.486-1.09-14.969-2.197-22.457-3.255c-3.127-0.445-6.256-1.047-5.592-5.225
		c0.6-3.779,3.534-3.498,6.417-3.073c15.195,2.23,30.393,4.44,45.594,6.624C134.314,270.709,137.228,271.261,136.758,275.042z
		 M138.792,261.162c-0.564,3.685-3.44,3.803-6.341,3.396c-7.71-1.081-15.412-2.225-23.116-3.346
		c-7.478-1.084-14.958-2.16-22.433-3.265c-3.148-0.462-6.197-1.346-5.418-5.427c0.72-3.782,3.827-3.246,6.594-2.848
		c15.184,2.191,30.367,4.398,45.547,6.621C136.461,256.709,139.374,257.325,138.792,261.162z M140.813,247.261
		c-0.669,3.809-3.688,3.391-6.49,2.992c-7.707-1.11-15.415-2.236-23.122-3.356c-7.479-1.087-14.962-2.168-22.439-3.265
		c-2.813-0.417-5.791-0.908-5.307-4.761c0.461-3.674,3.257-3.971,6.219-3.543c15.417,2.223,30.831,4.462,46.244,6.719
		C138.896,242.485,141.453,243.64,140.813,247.261z"/>
	<path fill="#FFFFFF" stroke="#C6C6C5" stroke-width="2" stroke-miterlimit="10" d="M128.185,43.416
		c-0.142,0.215-0.155,0.36-0.023,0.592c1.447,2.532,2.721,5.146,3.718,7.892c0.066,0.168,0.139,0.254,0.353,0.276
		c2.926,0.303,5.854,0.62,8.782,0.938c2.15,0.231,4.3,0.474,6.446,0.71c0.284,0.034,0.574,0.04,0.858,0.086
		c1.383,0.23,2.469,1.46,2.548,2.905c0.091,1.731,0.157,3.465,0.236,5.198c0.218,4.816,0.438,9.634,0.645,14.452
		c0.067,1.54-0.954,2.973-2.371,3.303c-0.737,0.173-1.488,0.292-2.233,0.438c-1.622,0.316-3.241,0.631-4.857,0.951
		c-1.84,0.363-3.676,0.729-5.514,1.094c-1.076,0.213-2.157,0.426-3.236,0.627c-0.199,0.037-0.288,0.139-0.344,0.318
		c-0.795,2.627-1.707,5.211-2.897,7.691c-0.11,0.235,0.034,0.34,0.134,0.472c1.858,2.38,3.806,4.688,5.79,6.959
		c1.288,1.473,2.595,2.932,3.884,4.402c1.168,1.332,1.367,2.792,0.54,4.015c-0.272,0.403-0.555,0.798-0.842,1.19
		c-2.233,3.044-4.761,5.845-7.314,8.617c-1.815,1.97-3.655,3.919-5.754,5.598c-0.286,0.23-0.589,0.439-0.891,0.649
		c-1.391,0.978-2.422,1.099-4.126-0.079c-4.068-2.815-8.07-5.724-12.092-8.605c-0.249-0.176-0.42-0.188-0.682-0.037
		c-2.299,1.331-4.694,2.462-7.188,3.379c-0.252,0.093-0.307,0.226-0.326,0.484c-0.23,2.914-0.449,5.827-0.759,8.733
		c-0.263,2.459-0.541,4.916-1.026,7.342c-0.339,1.684-1.334,2.548-3.037,2.624c-6.484,0.294-12.97,0.583-19.455,0.878
		c-0.544,0.023-1.071-0.02-1.577-0.237c-1.058-0.459-1.638-1.253-1.854-2.398c-0.733-3.86-1.508-7.712-2.269-11.567
		c-0.265-1.348-0.541-2.694-0.8-4.044c-0.043-0.224-0.14-0.335-0.36-0.396c-2.563-0.697-5.057-1.593-7.479-2.681
		c-0.212-0.096-0.346-0.072-0.521,0.075c-2.161,1.806-4.323,3.607-6.486,5.41c0.31,1.612,0.659,3.23,1.092,4.862
		c3.597,13.57,7.67,26.913,13.936,39.455c8.495,17.008,14.028,34.313,9.458,53.675c-1.296,5.487,1.564,8.999,7.772,9.645
		c8.451,0.882,16.839,2.361,25.255,3.584c7.506,1.092,15.012,2.184,22.517,3.273c11.279,1.637,12.858,0.7,14.162-10.674
		c1.573-13.719,6.938-25.499,16.144-35.734c5.821-6.479,11.578-13.062,16.84-19.995c10.98-14.468,22.197-29.306,24.538-47.783
		c3.758-29.701-6.818-54.517-31.025-72.136c-13.396-9.751-27.542-14.77-42.112-15.243c-0.073,0.105-0.144,0.213-0.218,0.317
		C132.165,37.749,130.11,40.536,128.185,43.416z"/>
	<path fill="#FFFFFF" d="M131.436,270.295c-15.201-2.184-30.398-4.394-45.594-6.624c-2.883-0.425-5.817-0.706-6.417,3.073
		c-0.664,4.178,2.465,4.779,5.592,5.225c7.488,1.058,14.971,2.165,22.457,3.255c7.486,1.086,14.973,2.157,22.456,3.27
		c3.136,0.467,6.304,0.729,6.828-3.451C137.228,271.261,134.314,270.709,131.436,270.295z"/>
	<path fill="#FFFFFF" d="M135.916,242.047c-15.413-2.257-30.827-4.496-46.244-6.719c-2.961-0.428-5.757-0.131-6.219,3.543
		c-0.483,3.853,2.494,4.344,5.307,4.761c7.477,1.097,14.96,2.178,22.439,3.265c7.707,1.12,15.415,2.246,23.122,3.356
		c2.803,0.398,5.821,0.816,6.49-2.992C141.453,243.64,138.896,242.485,135.916,242.047z"/>
	<path fill="#FFFFFF" d="M133.625,256.294c-15.181-2.223-30.364-4.43-45.547-6.621c-2.767-0.398-5.875-0.935-6.594,2.848
		c-0.778,4.081,2.27,4.965,5.418,5.427c7.476,1.104,14.956,2.181,22.433,3.265c7.704,1.121,15.406,2.265,23.116,3.346
		c2.9,0.407,5.776,0.289,6.341-3.396C139.374,257.325,136.461,256.709,133.625,256.294z"/>
	<path fill="#6F6F6E" d="M113.263,281.892c-4.508-0.7-9.02-1.409-13.549-1.95c-3.428-0.412-5.001,1.543-5.351,4.745
		c-0.342,3.136,1.286,4.64,4.202,5.073c2.031,0.299,4.065,0.59,6.097,0.887c2.257,0.33,4.52,0.632,6.772,0.994
		c3.18,0.51,5.396-0.367,5.928-3.892C117.856,284.472,116.614,282.411,113.263,281.892z"/>
</g>
<g>
	<path fill-rule="evenodd" clip-rule="evenodd" fill="#B1B1B1" d="M37.238,102.551c-0.054-0.718,0.214-1.34,0.609-1.923
		c1.413-2.096,2.929-4.114,4.418-6.155c1.037-1.417,2.062-2.844,3.062-4.288c0.142-0.208,0.153-0.354,0.029-0.574
		c-1.275-2.234-2.318-4.576-3.108-7.028c-0.052-0.162-0.113-0.232-0.295-0.255c-1.684-0.194-3.366-0.402-5.047-0.608
		c-1.604-0.195-3.208-0.393-4.812-0.589c-1.251-0.153-2.501-0.368-3.759-0.446c-1.283-0.082-2.454-1.216-2.5-2.838
		c0-0.012,0-0.023-0.001-0.036c-0.157-5.644-0.316-11.286-0.467-16.931c-0.039-1.463,0.848-2.721,2.093-2.986
		c0.624-0.135,1.254-0.234,1.88-0.347c1.578-0.283,3.157-0.56,4.735-0.845c1.611-0.29,3.221-0.586,4.833-0.878
		c0.794-0.143,1.59-0.284,2.388-0.418c0.153-0.027,0.222-0.105,0.266-0.261c0.651-2.339,1.534-4.587,2.616-6.755
		c0.096-0.197,0.035-0.307-0.077-0.457c-2.423-3.27-5.021-6.39-7.665-9.476c-0.291-0.34-0.592-0.674-0.86-1.032
		c-0.663-0.88-0.771-1.82-0.236-2.806c0.506-0.935,1.167-1.763,1.838-2.575c2.76-3.355,5.693-6.548,8.839-9.54
		c0.787-0.749,1.612-1.455,2.528-2.049c1.245-0.809,2.156-0.811,3.367,0.052c1.12,0.798,2.212,1.625,3.316,2.443
		c2.447,1.812,4.895,3.622,7.336,5.441c0.165,0.121,0.275,0.123,0.447,0.027c2.046-1.147,4.167-2.128,6.379-2.9
		c0.259-0.09,0.268-0.267,0.287-0.47c0.124-1.294,0.252-2.591,0.368-3.885c0.151-1.687,0.347-3.366,0.563-5.044
		c0.227-1.756,0.468-3.509,0.873-5.234c0.317-1.356,1.153-2.084,2.529-2.125c5.358-0.165,10.717-0.309,16.077-0.459
		c0.388-0.011,0.775-0.023,1.164-0.024c1.422,0,2.446,0.911,2.688,2.323c0.352,2.042,0.738,4.076,1.101,6.115
		c0.392,2.187,0.777,4.373,1.163,6.561c0.033,0.191,0.101,0.384,0.098,0.576c-0.01,0.676,0.36,0.915,0.962,1.091
		c2.041,0.593,4.009,1.385,5.931,2.301c0.231,0.112,0.329-0.006,0.46-0.113c2.92-2.355,5.84-4.712,8.759-7.07
		c0.614-0.497,1.198-1.029,1.832-1.499c0.857-0.642,1.804-0.692,2.774-0.279c0.309,0.128,0.585,0.317,0.833,0.539
		c3.445,3.08,6.896,6.161,10.098,9.506c0.943,0.986,1.827,2.028,2.703,3.081c0.848,1.022,0.866,2.547,0.084,3.647
		c-0.745,1.046-1.468,2.109-2.226,3.148c-1.775,2.458-3.601,4.875-5.313,7.376c-0.126,0.186-0.141,0.313-0.029,0.52
		c1.218,2.247,2.288,4.563,3.112,6.992c0.053,0.148,0.115,0.225,0.299,0.248c2.539,0.311,5.076,0.635,7.612,0.959
		c1.864,0.237,3.726,0.482,5.586,0.724c0.248,0.033,0.498,0.044,0.742,0.09c1.197,0.223,2.123,1.321,2.171,2.591
		c0.055,1.522,0.086,3.046,0.128,4.571c0.118,4.235,0.24,8.471,0.35,12.707c0.036,1.354-0.871,2.599-2.107,2.866
		c-0.642,0.14-1.297,0.235-1.944,0.351c-1.412,0.252-2.823,0.504-4.23,0.761c-1.604,0.29-3.202,0.583-4.803,0.877
		c-0.939,0.17-1.88,0.34-2.821,0.501c-0.171,0.029-0.248,0.117-0.302,0.275c-0.727,2.295-1.556,4.553-2.626,6.712
		c-0.101,0.205,0.025,0.298,0.109,0.417c1.577,2.119,3.235,4.178,4.923,6.204c1.099,1.313,2.21,2.615,3.307,3.927
		c0.995,1.188,1.147,2.474,0.411,3.536c-0.243,0.349-0.492,0.692-0.748,1.033c-1.984,2.64-4.219,5.063-6.476,7.459
		c-1.604,1.703-3.231,3.388-5.076,4.83c-0.251,0.198-0.518,0.376-0.783,0.555c-1.222,0.839-2.12,0.928-3.58-0.132
		c-3.49-2.536-6.922-5.154-10.372-7.747c-0.213-0.16-0.362-0.172-0.592-0.044c-2.016,1.134-4.11,2.092-6.289,2.86
		c-0.221,0.077-0.27,0.194-0.291,0.419c-0.241,2.556-0.474,5.113-0.786,7.661c-0.265,2.157-0.542,4.312-0.998,6.437
		c-0.319,1.475-1.196,2.219-2.674,2.259c-5.634,0.159-11.269,0.313-16.902,0.47c-0.474,0.014-0.93-0.033-1.366-0.231
		c-0.912-0.421-1.403-1.126-1.574-2.136c-0.579-3.403-1.196-6.799-1.8-10.198c-0.21-1.187-0.43-2.376-0.635-3.566
		c-0.034-0.198-0.117-0.296-0.307-0.353c-2.213-0.652-4.366-1.478-6.453-2.471c-0.182-0.087-0.298-0.068-0.455,0.058
		c-3.473,2.836-6.953,5.667-10.429,8.501c-1.073,0.875-2.55,0.878-3.575-0.016c-2.807-2.452-5.605-4.914-8.276-7.521
		c-1.666-1.627-3.302-3.285-4.741-5.13C37.481,103.86,37.245,103.252,37.238,102.551z M64.719,68.396
		c0.145,10.867,9.471,19.486,19.882,19.301c10.956-0.194,19.529-9.762,19.25-20.331c-0.286-10.744-9.469-19.494-19.901-19.32
		C73.255,48.224,64.266,57.509,64.719,68.396z"/>
</g>
<g>
	<path fill-rule="evenodd" clip-rule="evenodd" fill="#090B0C" d="M-95.416,500.906c-3.281-3.131-6.607-6.195-11.261-7.425
		c1.543-0.819,2.821-1.858,4.589-1.66c0.732,0.082,2.792-0.944,4.015-1.757c1.255-0.834,2.727-1.002,3.751-0.072
		c2.931,2.66,6.392,4.523,9.667,6.666c-2.187,2.083-5.044,2.794-7.781,3.698C-93.369,500.665-94.355,501.105-95.416,500.906z"/>
	<path fill-rule="evenodd" clip-rule="evenodd" fill="#090B0C" d="M-83.75,496.521c0.307,0.031,0.533-0.072,0.636-0.381
		C-83.326,496.267-83.538,496.395-83.75,496.521z"/>
</g>
</svg>
